<svg width="423" height="344" viewBox="0 0 423 344" fill="none" xmlns="http://www.w3.org/2000/svg">
<g clip-path="url(#clip0_1305_3173)">
<path d="M136.69 249.67C138.57 244.22 142.18 241.18 147.92 239.52C179.26 230.42 210.98 227.99 243.25 232.99C254.07 234.67 264.6 237.5 275.12 240.52C280.97 242.2 284.88 245.52 287.47 250.77C287.02 250.73 286.51 250.82 286.14 250.63C283.03 249.08 282.14 250.31 282.32 253.41C282.5 256.55 282.41 259.71 282.44 262.86C281.95 263.99 281.97 265.12 282.52 266.22C282.45 267.7 282.31 269.17 282.31 270.65C282.31 293.79 282.29 316.94 282.41 340.08C282.43 343.09 281.83 343.94 278.56 343.52C256.83 340.73 235.34 336.7 214.07 331.45C212.23 331 210.48 331.13 208.68 331.56C187.62 336.65 166.45 341.12 144.88 343.55C141.83 343.89 140.82 343.34 140.86 340.16C140.99 327.05 140.93 313.94 140.9 300.83C140.87 289.09 140.78 277.35 140.71 265.62C141.19 264.55 141.38 263.46 140.82 262.35C140.83 259.41 140.86 256.47 140.86 253.52C140.86 249.36 140.82 249.32 136.69 249.64V249.67Z" fill="#19A79D"/>
<path d="M273.66 251.27C273.66 269.29 273.64 311.33 273.74 329.34C273.75 331.68 273.23 332.35 270.36 332.02C251.29 329.85 232.43 326.71 213.76 322.62C212.15 322.27 210.61 322.37 209.03 322.71C190.55 326.67 171.96 330.15 153.03 332.05C150.36 332.32 149.47 331.89 149.5 329.41C149.62 319.21 149.56 309 149.53 298.79C149.5 289.65 149.42 260.4 149.37 251.26" stroke="#B7A895" stroke-width="2" stroke-miterlimit="10"/>
<path d="M186.044 312.27H166.778V306.927L175.163 299.751C175.917 299.101 176.554 298.516 177.074 297.996C177.594 297.45 178.01 296.93 178.322 296.436C178.66 295.916 178.894 295.409 179.024 294.915C179.18 294.421 179.258 293.888 179.258 293.316V292.77C179.258 292.25 179.154 291.795 178.946 291.405C178.738 291.015 178.465 290.69 178.127 290.43C177.789 290.17 177.399 289.975 176.957 289.845C176.541 289.715 176.112 289.65 175.67 289.65C175.02 289.65 174.448 289.754 173.954 289.962C173.486 290.17 173.07 290.456 172.706 290.82C172.368 291.158 172.082 291.561 171.848 292.029C171.614 292.471 171.432 292.952 171.302 293.472L166.193 291.522C166.505 290.586 166.934 289.702 167.48 288.87C168.026 288.012 168.702 287.271 169.508 286.647C170.34 285.997 171.315 285.49 172.433 285.126C173.551 284.762 174.812 284.58 176.216 284.58C177.698 284.58 179.011 284.788 180.155 285.204C181.299 285.62 182.261 286.192 183.041 286.92C183.847 287.648 184.458 288.519 184.874 289.533C185.29 290.521 185.498 291.6 185.498 292.77C185.498 293.94 185.303 295.006 184.913 295.968C184.523 296.93 183.99 297.84 183.314 298.698C182.664 299.53 181.897 300.323 181.013 301.077C180.129 301.831 179.206 302.598 178.244 303.378L173.174 307.356H186.044V312.27ZM199.64 312.738C196.078 312.738 193.439 311.503 191.723 309.033C190.007 306.563 189.149 303.105 189.149 298.659C189.149 294.213 190.007 290.755 191.723 288.285C193.439 285.815 196.078 284.58 199.64 284.58C203.202 284.58 205.841 285.815 207.557 288.285C209.273 290.755 210.131 294.213 210.131 298.659C210.131 303.105 209.273 306.563 207.557 309.033C205.841 311.503 203.202 312.738 199.64 312.738ZM199.64 307.785C201.2 307.785 202.279 307.213 202.877 306.069C203.475 304.925 203.774 303.313 203.774 301.233V296.085C203.774 294.005 203.475 292.393 202.877 291.249C202.279 290.105 201.2 289.533 199.64 289.533C198.08 289.533 197.001 290.105 196.403 291.249C195.805 292.393 195.506 294.005 195.506 296.085V301.233C195.506 303.313 195.805 304.925 196.403 306.069C197.001 307.213 198.08 307.785 199.64 307.785ZM232.814 312.27H213.548V306.927L221.933 299.751C222.687 299.101 223.324 298.516 223.844 297.996C224.364 297.45 224.78 296.93 225.092 296.436C225.43 295.916 225.664 295.409 225.794 294.915C225.95 294.421 226.028 293.888 226.028 293.316V292.77C226.028 292.25 225.924 291.795 225.716 291.405C225.508 291.015 225.235 290.69 224.897 290.43C224.559 290.17 224.169 289.975 223.727 289.845C223.311 289.715 222.882 289.65 222.44 289.65C221.79 289.65 221.218 289.754 220.724 289.962C220.256 290.17 219.84 290.456 219.476 290.82C219.138 291.158 218.852 291.561 218.618 292.029C218.384 292.471 218.202 292.952 218.072 293.472L212.963 291.522C213.275 290.586 213.704 289.702 214.25 288.87C214.796 288.012 215.472 287.271 216.278 286.647C217.11 285.997 218.085 285.49 219.203 285.126C220.321 284.762 221.582 284.58 222.986 284.58C224.468 284.58 225.781 284.788 226.925 285.204C228.069 285.62 229.031 286.192 229.811 286.92C230.617 287.648 231.228 288.519 231.644 289.533C232.06 290.521 232.268 291.6 232.268 292.77C232.268 293.94 232.073 295.006 231.683 295.968C231.293 296.93 230.76 297.84 230.084 298.698C229.434 299.53 228.667 300.323 227.783 301.077C226.899 301.831 225.976 302.598 225.014 303.378L219.944 307.356H232.814V312.27ZM255.067 290.157H242.704L242.119 298.776H242.431C242.691 298.126 242.977 297.541 243.289 297.021C243.627 296.475 244.017 296.02 244.459 295.656C244.901 295.266 245.434 294.967 246.058 294.759C246.682 294.551 247.423 294.447 248.281 294.447C249.451 294.447 250.543 294.642 251.557 295.032C252.571 295.422 253.455 295.994 254.209 296.748C254.963 297.476 255.561 298.386 256.003 299.478C256.445 300.544 256.666 301.753 256.666 303.105C256.666 304.483 256.432 305.77 255.964 306.966C255.522 308.136 254.846 309.15 253.936 310.008C253.052 310.866 251.96 311.542 250.66 312.036C249.36 312.504 247.878 312.738 246.214 312.738C244.888 312.738 243.718 312.595 242.704 312.309C241.69 312.023 240.793 311.646 240.013 311.178C239.233 310.684 238.557 310.125 237.985 309.501C237.413 308.877 236.919 308.214 236.503 307.512L240.754 304.158C241.352 305.224 242.067 306.134 242.899 306.888C243.731 307.616 244.849 307.98 246.253 307.98C247.657 307.98 248.71 307.577 249.412 306.771C250.14 305.965 250.504 304.899 250.504 303.573V303.261C250.504 302.013 250.14 301.025 249.412 300.297C248.684 299.569 247.683 299.205 246.409 299.205C245.343 299.205 244.459 299.426 243.757 299.868C243.081 300.284 242.561 300.7 242.197 301.116L237.4 300.453L238.414 285.048H255.067V290.157Z" fill="white"/>
<path d="M243.44 276.41C241.96 276.41 240.49 276.39 239.01 276.36C233.43 276.25 227.78 275.94 222.31 275.65C219.99 275.53 217.67 275.4 215.35 275.29C207.6 274.91 199.86 274.54 192.12 274.19C190.5 274.12 188.87 274.06 187.24 273.99C180.8 273.74 174.13 273.47 167.59 272.89C156.64 271.95 146.23 269.34 136.67 265.13C128.81 261.63 119.78 257.36 111.98 250.91C102.22 242.78 93.88 233.67 87.19 223.8C81.66 215.64 78.19 206.63 75.54 198.88C72.41 189.81 70.69 179.84 70.29 168.4C70 159.7 70.88 150.85 72.91 142.1L73.1 141.32C74.17 136.77 75.28 132.07 77.25 127.63C83.23 113.9 89.14 102.83 98.53 93.47C103.64 88.4 108.29 83.87 113.61 79.73C115.24 78.48 116.91 77.38 118.52 76.32C119.22 75.86 119.93 75.39 120.62 74.92C124.42 72.43 128.46 70.25 133.02 68.21C136.7 66.56 140.77 65.01 145.8 63.34C153.99 60.6 162.45 59.03 170.95 58.67C172.26 58.61 173.57 58.5 174.95 58.38C175.8 58.31 176.66 58.23 177.52 58.17C177.98 58.14 178.43 58.13 178.88 58.13C180.42 58.13 181.87 58.29 183.27 58.45C184.41 58.58 185.49 58.7 186.51 58.72C188.68 55.44 191.6 52.78 195.57 50.47C199.76 48.01 204.03 47.1 208.19 46.4C208.3 45.51 208.41 44.63 208.52 43.74C209.08 39.16 209.66 34.42 210.81 29.78C211.1 28.63 211.37 27.48 211.64 26.32C213.04 20.38 214.48 14.23 217.91 8.52002C219.68 5.61002 222.32 4.02002 225.35 4.02002C226.14 4.02002 226.96 4.13002 227.77 4.35002C231.62 5.37002 235.24 6.56002 238.5 7.87002C241.46 9.08002 243.24 10.87 243.8 13.2C244.37 15.56 243.58 18.03 241.43 20.56C238.49 24.03 236.56 28.4 234.7 32.63C233.66 34.98 232.52 37.29 231.41 39.52C230.02 42.32 228.68 45.01 227.56 47.75C232.54 49.45 237.25 52.23 241.84 56.17C243.59 57.69 244.59 59.61 245.46 61.33C251.58 61.36 258 62.04 264.55 63.35C274.96 65.42 285.48 69.28 296.74 75.16C304.46 79.16 311.09 85.04 316.41 89.76C323.94 96.4 330.32 104.18 335.36 112.89C335.88 113.78 336.44 114.65 337.04 115.58C338.18 117.35 339.36 119.17 340.33 121.29C342.25 125.56 343.82 129.93 345.34 134.16C345.68 135.11 346.02 136.07 346.37 137.02C348.33 142.4 349.26 147.83 350.16 153.08L350.24 153.55C351.57 161.26 351.88 169.4 351.16 177.75C350.15 189.03 347.98 198.5 344.53 206.71C339.9 217.64 335.44 227.38 327.7 235.83C326.71 236.91 325.73 237.99 324.76 239.06C320.95 243.28 317.01 247.64 312.43 251.42C304.76 257.79 297.15 262.73 289.16 266.51C287.53 267.29 285.86 267.85 284.26 268.39C283.81 268.54 283.36 268.69 282.91 268.85C282.01 269.48 281.09 269.89 280.13 270.1C280.08 270.12 280.03 270.14 279.99 270.16C279.24 270.58 278.51 270.69 277.95 270.69C277.8 270.69 277.62 270.69 277.41 270.65C277.37 270.65 277.33 270.67 277.29 270.68C267.81 274.64 257.38 276.42 243.48 276.42L243.44 276.41Z" fill="#FEFEFE"/>
<path d="M225.31 8C225.75 8 226.21 8.06 226.69 8.19C230.15 9.1 233.62 10.21 236.96 11.56C240.49 13.01 240.8 15.06 238.35 17.95C235.07 21.82 233.03 26.42 231.01 30.99C228.14 37.48 224.43 43.62 222.29 50.42C228.75 51.77 234.29 54.96 239.2 59.18C240.93 60.69 241.78 63.24 243.04 65.32C243.67 65.31 244.3 65.3 244.93 65.3C251.26 65.3 257.55 66.01 263.74 67.24C274.67 69.41 284.97 73.51 294.86 78.67C301.92 82.32 307.87 87.52 313.73 92.72C320.91 99.05 327.02 106.48 331.87 114.86C333.44 117.57 335.34 120.03 336.66 122.92C338.93 127.96 340.69 133.16 342.58 138.35C344.47 143.55 345.35 148.87 346.26 154.19C347.58 161.84 347.8 169.69 347.14 177.37C346.29 186.88 344.49 196.36 340.81 205.12C336.62 215.01 332.24 224.87 324.71 233.09C319.89 238.32 315.32 243.77 309.84 248.3C302.94 254.03 295.54 259.01 287.41 262.85C285.36 263.83 283.13 264.46 280.95 265.24C280.29 265.78 279.56 266.19 278.68 266.22C278.6 266.35 278.48 266.42 278.33 266.42C278.3 266.42 278.27 266.42 278.24 266.42C278.11 266.56 278.01 266.66 277.89 266.66C277.8 266.66 277.71 266.61 277.61 266.49C276.98 266.65 276.32 266.71 275.72 266.96C265.34 271.3 254.41 272.4 243.42 272.4C241.98 272.4 240.53 272.38 239.09 272.35C231.25 272.19 223.4 271.66 215.53 271.28C207.78 270.9 200.03 270.52 192.28 270.18C184.15 269.83 176 269.61 167.93 268.89C157.69 268.01 147.65 265.58 138.26 261.46C129.91 257.74 121.6 253.68 114.51 247.82C105.31 240.17 97.1901 231.44 90.4801 221.55C85.5001 214.21 82.1601 205.93 79.3001 197.58C76.0201 188.1 74.6101 178.18 74.2601 168.26C73.9801 159.82 74.8601 151.28 76.7801 143C77.8801 138.34 78.9501 133.58 80.8701 129.24C86.0701 117.3 91.8601 105.71 101.31 96.29C106.03 91.6 110.76 86.97 116.02 82.87C118.19 81.2 120.56 79.75 122.82 78.21C126.57 75.75 130.51 73.67 134.6 71.85C138.66 70.02 142.82 68.51 147.01 67.13C154.82 64.52 162.85 63 171.07 62.66C173.31 62.57 175.51 62.31 177.75 62.16C178.11 62.14 178.47 62.12 178.82 62.12C181.46 62.12 184.08 62.7 186.73 62.7C187.42 62.7 188.11 62.66 188.8 62.56C190.82 58.78 193.74 56.1 197.52 53.9C202.02 51.25 206.81 50.66 211.69 49.84C212.6 43.48 213.08 36.96 214.62 30.72C216.32 23.89 217.52 16.8 221.27 10.56C222.31 8.86 223.67 8 225.28 8M225.28 0C220.86 0 216.91 2.33 214.44 6.4C210.66 12.69 209.08 19.43 207.68 25.39C207.41 26.53 207.15 27.66 206.87 28.79C205.68 33.59 205.09 38.36 204.52 42.98C200.97 43.71 197.21 44.81 193.47 47.01C189.82 49.14 186.86 51.64 184.52 54.56C184.23 54.53 183.94 54.5 183.64 54.46C182.2 54.3 180.57 54.12 178.81 54.12C178.26 54.12 177.71 54.14 177.19 54.17C176.29 54.23 175.4 54.31 174.52 54.39C173.19 54.51 171.93 54.61 170.72 54.67C161.85 55.04 153.01 56.69 144.46 59.55C139.31 61.25 135.12 62.85 131.31 64.56C126.57 66.68 122.35 68.96 118.42 71.53L118.36 71.57L118.3 71.61C117.62 72.07 116.94 72.52 116.25 72.98C114.58 74.08 112.85 75.22 111.13 76.54L111.11 76.56L111.09 76.58C105.6 80.85 100.85 85.47 95.6601 90.64C85.2301 101.03 78.8601 113.81 73.5201 126.07C71.4201 130.82 70.2701 135.7 69.1501 140.43L68.9701 141.19C66.8501 150.32 65.9401 159.52 66.2401 168.56C66.6501 180.41 68.4401 190.77 71.7101 200.23C74.4501 208.21 78.0401 217.53 83.8301 226.08C90.7301 236.25 99.3201 245.65 109.37 254.01C117.58 260.8 126.9 265.21 134.98 268.81C144.98 273.2 155.81 275.92 167.22 276.91C173.84 277.5 180.55 277.77 187.05 278.03C188.67 278.09 190.3 278.16 191.92 278.23C199.68 278.58 207.52 278.96 215.12 279.33C217.44 279.44 219.76 279.57 222.07 279.69C227.57 279.99 233.25 280.29 238.91 280.41C240.48 280.45 241.96 280.46 243.4 280.46C257.48 280.46 268.2 278.69 278.01 274.72C278.85 274.71 280.09 274.55 281.41 273.92C282.52 273.62 283.59 273.15 284.61 272.5C284.9 272.4 285.18 272.31 285.47 272.21C287.11 271.66 288.97 271.03 290.82 270.14C299.09 266.23 306.98 261.12 314.92 254.52C319.7 250.56 323.74 246.09 327.65 241.77C328.61 240.7 329.58 239.63 330.56 238.58C338.75 229.64 343.36 219.58 348.14 208.31C351.76 199.7 354.03 189.84 355.07 178.15C355.82 169.43 355.49 160.94 354.1 152.89L354.02 152.42C353.09 147 352.13 141.39 350.05 135.67C349.71 134.72 349.37 133.78 349.03 132.83C347.48 128.53 345.89 124.08 343.91 119.68C342.8 117.26 341.49 115.22 340.33 113.42C339.76 112.53 339.22 111.69 338.74 110.88C333.49 101.81 326.84 93.69 318.97 86.76C313.5 81.9 306.66 75.84 298.49 71.61C286.92 65.57 276.04 61.58 265.25 59.43C259.29 58.24 253.43 57.56 247.79 57.38C246.97 55.98 245.9 54.48 244.41 53.19L244.39 53.17L244.37 53.15C240.63 49.94 236.81 47.43 232.82 45.59C233.49 44.18 234.19 42.76 234.92 41.3C236.05 39.03 237.21 36.69 238.29 34.25C240.12 30.1 241.85 26.18 244.42 23.14C248.17 18.71 248.23 14.78 247.62 12.25C247.01 9.75 245.19 6.32 239.97 4.18C236.53 2.79 232.76 1.55 228.73 0.48C227.58 0.17 226.42 0.01 225.28 0.01V0Z" fill="#19A79D"/>
<path d="M323.19 183.7C323.38 191.64 321.96 199.45 320.2 207.17C317.87 217.28 314.44 226.92 309.24 235.99C304.99 243.45 300.23 250.51 293.55 255.93C290.62 258.32 287.91 261.19 284.13 262.58C282.96 263.02 281.11 263.37 280.95 265.29C280.29 265.83 279.56 266.24 278.68 266.27C278.55 266.21 278.46 266.11 278.33 266.02C278.3 266.18 278.27 266.27 278.24 266.43C278.02 266.46 277.8 266.49 277.61 266.52C276.98 266.68 276.32 266.74 275.72 266.99C263.97 271.9 251.53 272.66 239.09 272.38C231.25 272.22 223.4 271.69 215.53 271.31C207.78 270.93 200.03 270.55 192.28 270.21C184.15 269.86 176 269.64 167.93 268.92C157.69 268.04 147.65 265.61 138.26 261.49C129.91 257.77 121.6 253.71 114.51 247.85C105.31 240.2 97.1901 231.47 90.4801 221.58C85.5001 214.24 82.1601 205.96 79.3001 197.61C76.0201 188.13 74.6101 178.21 74.2601 168.29C73.9801 159.85 74.8601 151.31 76.7801 143.03C77.8801 138.37 78.9501 133.61 80.8701 129.27C86.0701 117.33 91.8601 105.74 101.31 96.32C106.03 91.63 110.76 87 116.02 82.9C118.19 81.23 120.56 79.78 122.82 78.24C127.61 78.81 129.12 82.81 125.37 86.62C123.07 88.95 121.02 91.5 119.54 94.34C115.35 102.47 110.97 110.53 108.45 119.41C107.88 121.36 107.82 123.5 106.97 125.3C104.48 130.59 104.54 136.48 103.76 141.99C102.75 149.39 103.13 157.05 103.7 164.54C104.17 171 105.43 177.49 107.2 183.75C109.56 192.1 112.93 200.07 117 207.75C117.6 208.95 118.61 209.01 119.58 208.73C120.62 208.45 121.22 207.85 121.09 206.49C120.52 201.29 118.98 196.28 118.19 191.12C117.37 185.64 116.8 180.03 116.71 174.65C116.65 169.93 116.21 165.01 117.34 160.19C118.22 156.41 117.69 152.41 118.35 148.44C119.99 138.77 122.32 129.42 125.53 120.12C128.84 110.64 133.53 102.07 138.95 93.82C141.97 89.22 145.25 88.06 150.54 88.87C155.52 89.63 157.69 93.03 159.23 97.15C159.58 98.13 160.02 99.17 159.67 100.39C157.15 109.34 154.25 118.15 152.71 127.41C151.58 134.21 150.88 141.08 150.6 147.88C150.41 152.57 150.32 157.39 150.79 162.18C151.39 168.29 152.08 174.37 153.15 180.42C154.22 186.4 155.76 192.23 157.78 197.93C158.76 200.7 159.76 203.47 160.84 206.25C161.38 207.57 162.51 208.45 163.9 208.05C164.97 207.7 166.11 206.82 165.85 205.34C164.65 198.63 164.15 191.86 163.8 185.09C163.67 182.41 163.14 179.64 163.42 177.09C164.37 168.05 163.51 158.88 165.31 149.84C166.03 146.12 166.16 142.28 166.88 138.5C167.82 133.65 168.61 128.77 169.84 123.95C171.29 118.31 172.61 112.67 174.91 107.32C176.77 102.97 180.11 100.71 184.71 100.8C190.66 100.93 195.73 105.02 195.89 110.91C195.95 114.6 195.48 118.5 194.76 122.12C193.47 128.58 194.07 135.03 193.41 141.46C192.81 147.51 192.84 153.62 193.28 159.73C193.6 164.2 193.37 168.74 193.88 173.21C194.48 179.04 195.14 184.86 195.93 190.69C197.03 198.75 198.86 206.6 201.13 214.34C202.3 218.4 203.78 222.34 205.76 226.18C208.53 231.57 211.56 236.64 216.37 240.48C220.91 244.13 228.91 243.82 233.32 239.98C237.95 235.98 241.51 231.13 244.56 226.03C248.81 218.85 251.46 210.91 253.88 202.94C254.83 199.82 255.2 196.45 255.55 193.27C256.27 186.62 257.82 180.01 257.47 173.24C257.44 172.33 257.41 171.38 257.57 170.47C258.86 161.97 258.2 153.4 257.79 144.89C257.44 136.57 255.74 128.32 254.67 120.07C254.51 119.06 253.79 118.12 254.29 117.08C255.49 114.62 256.87 112.2 259.8 111.6C263.2 110.91 265.82 112.45 267.71 115.51C269.98 119.1 271.65 123.01 273.85 126.6C276.05 130.19 277.31 134.25 278.42 138.13C280.34 145.09 282.45 152.05 283.46 159.33C284.34 165.88 284.81 172.46 285.35 179.05C285.79 184.69 284.72 190.33 284.81 195.96C284.84 197.85 284.53 199.65 284.18 201.47C283.11 207.23 282.7 213.16 280.87 218.79C279.67 222.57 279.17 226.54 277.59 230.22C275.04 236.27 272.55 242.31 270.03 248.36C269.65 249.27 269.53 250.22 270.41 250.88C271.23 251.51 272.17 251.98 273.28 251.6C274.38 251.25 275.23 250.53 275.96 249.68C281.54 243.32 286.26 236.29 290.17 228.92C294.33 221.05 297.38 212.64 299.81 203.97C301.79 196.88 302.83 189.61 304.16 182.43C304.98 178.11 304.6 173.58 304.79 169.14C305.01 163.63 305.14 158.12 304.44 152.57C303.65 146.02 303.18 139.44 301.51 133.01C301.1 131.37 301.01 129.73 300.94 128.06C300.85 125.98 301.22 124.22 303.43 123.71C305.57 123.24 307.46 123.87 308.6 125.91C309.95 128.4 311.59 130.7 312.73 133.37C316.23 141.5 318.87 149.81 320.76 158.5C322.59 166.88 323.03 175.26 323.19 183.67V183.7Z" fill="#FE7D28"/>
<path d="M347.13 177.4C346.28 186.91 344.48 196.39 340.8 205.15C336.61 215.04 332.23 224.9 324.7 233.12C319.88 238.35 315.31 243.8 309.83 248.33C302.93 254.06 295.53 259.04 287.4 262.88C285.35 263.86 283.12 264.49 280.94 265.27C281.1 263.35 282.96 263 284.12 262.56C287.9 261.17 290.61 258.31 293.54 255.91C300.22 250.49 304.97 243.44 309.23 235.97C314.43 226.9 317.86 217.26 320.19 207.15C321.95 199.43 323.37 191.62 323.18 183.68C323.02 175.27 322.58 166.89 320.75 158.51C318.86 149.82 316.21 141.5 312.72 133.38C311.59 130.7 309.95 128.4 308.59 125.92C307.46 123.87 305.57 123.24 303.42 123.72C301.22 124.22 300.84 125.99 300.93 128.07C300.99 129.74 301.09 131.38 301.5 133.02C303.17 139.45 303.64 146.03 304.43 152.58C305.12 158.12 305 163.64 304.78 169.15C304.59 173.59 304.97 178.13 304.15 182.44C302.83 189.62 301.79 196.9 299.8 203.98C297.37 212.64 294.32 221.05 290.16 228.93C286.25 236.3 281.53 243.32 275.95 249.69C275.23 250.54 274.38 251.26 273.27 251.61C272.17 251.99 271.22 251.52 270.4 250.89C269.52 250.23 269.64 249.28 270.02 248.37C272.54 242.32 275.03 236.28 277.58 230.23C279.15 226.54 279.66 222.58 280.86 218.8C282.69 213.16 283.1 207.24 284.17 201.48C284.52 199.65 284.83 197.86 284.8 195.97C284.71 190.33 285.78 184.69 285.34 179.06C284.8 172.48 284.33 165.89 283.45 159.34C282.44 152.06 280.33 145.1 278.41 138.14C277.31 134.27 276.05 130.2 273.84 126.61C271.63 123.02 269.97 119.11 267.7 115.52C265.81 112.46 263.2 110.92 259.79 111.61C256.86 112.21 255.47 114.63 254.28 117.09C253.78 118.13 254.5 119.07 254.66 120.08C255.73 128.33 257.43 136.58 257.78 144.9C258.19 153.4 258.85 161.97 257.56 170.48C257.4 171.39 257.43 172.34 257.46 173.25C257.81 180.02 256.26 186.64 255.54 193.28C255.19 196.46 254.82 199.83 253.87 202.95C251.44 210.92 248.8 218.86 244.55 226.04C241.49 231.14 237.94 235.99 233.31 239.99C228.9 243.83 220.9 244.15 216.36 240.49C211.54 236.65 208.52 231.58 205.75 226.19C203.77 222.35 202.29 218.41 201.12 214.35C198.85 206.6 197.03 198.76 195.92 190.7C195.13 184.87 194.47 179.05 193.87 173.22C193.37 168.75 193.59 164.21 193.27 159.74C192.83 153.63 192.8 147.52 193.4 141.47C194.06 135.04 193.46 128.59 194.75 122.13C195.47 118.51 195.95 114.6 195.88 110.92C195.72 105.03 190.65 100.94 184.7 100.81C180.1 100.72 176.76 102.98 174.9 107.33C172.6 112.68 171.28 118.32 169.83 123.96C168.6 128.78 167.81 133.66 166.87 138.51C166.15 142.29 166.02 146.13 165.3 149.85C163.5 158.89 164.35 168.06 163.41 177.1C163.13 179.65 163.66 182.42 163.79 185.1C164.14 191.87 164.64 198.64 165.84 205.35C166.09 206.83 164.96 207.71 163.89 208.06C162.5 208.47 161.37 207.59 160.83 206.26C159.76 203.49 158.75 200.72 157.77 197.94C155.75 192.24 154.21 186.41 153.14 180.43C152.07 174.38 151.38 168.3 150.78 162.19C150.31 157.4 150.4 152.58 150.59 147.89C150.87 141.09 151.57 134.22 152.7 127.42C154.24 118.16 157.14 109.34 159.66 100.4C160.01 99.1699 159.57 98.1299 159.22 97.1599C157.68 93.0299 155.5 89.6299 150.53 88.8799C145.24 88.0599 141.96 89.2299 138.94 93.8299C133.52 102.08 128.83 110.65 125.52 120.13C122.31 129.42 119.98 138.78 118.34 148.45C117.68 152.42 118.21 156.42 117.33 160.2C116.2 165.02 116.64 169.93 116.7 174.66C116.79 180.05 117.36 185.65 118.18 191.13C118.97 196.3 120.51 201.3 121.08 206.5C121.21 207.85 120.61 208.45 119.57 208.74C118.59 209.02 117.59 208.96 116.99 207.76C112.93 200.07 109.56 192.11 107.19 183.76C105.43 177.49 104.17 171 103.69 164.55C103.12 157.05 102.74 149.4 103.75 142C104.54 136.49 104.47 130.6 106.96 125.31C107.81 123.51 107.87 121.37 108.44 119.42C110.96 110.54 115.34 102.47 119.53 94.3499C121.01 91.5199 123.06 88.9599 125.36 86.6299C129.11 82.8199 127.6 78.8199 122.81 78.2499C126.56 75.7899 130.5 73.7099 134.59 71.8899C138.65 70.0599 142.81 68.5499 147 67.1699C154.81 64.5599 162.84 63.0399 171.06 62.6999C173.3 62.6099 175.5 62.3499 177.74 62.1999C181.42 61.9499 185.08 63.1499 188.8 62.6099C193.59 62.8899 198.41 63.1499 203.19 63.3999C207.54 63.6499 211.88 63.4899 216.2 63.8999C225.11 64.7799 234.09 64.5899 243 65.3799C249.96 65.2199 256.89 65.9499 263.69 67.2999C274.62 69.4699 284.92 73.5699 294.81 78.7299C301.87 82.3799 307.82 87.5799 313.68 92.7799C320.86 99.1099 326.97 106.54 331.82 114.92C333.39 117.63 335.29 120.09 336.61 122.98C338.88 128.02 340.64 133.22 342.53 138.41C344.42 143.61 345.3 148.93 346.21 154.25C347.53 161.9 347.75 169.75 347.09 177.43L347.13 177.4Z" fill="#FE9932"/>
<path d="M238.34 17.96C235.06 21.83 233.02 26.43 231 31C228.13 37.49 224.42 43.63 222.28 50.43C218.72 50.59 215.29 49.08 211.73 49.83C212.64 43.47 213.12 36.9499 214.66 30.7099C216.36 23.8799 217.56 16.79 221.31 10.55C222.63 8.37995 224.49 7.58995 226.7 8.18995C230.16 9.09995 233.63 10.21 236.97 11.56C240.5 13.01 240.81 15.06 238.36 17.95L238.34 17.96Z" fill="#BECD56"/>
<path d="M243.03 65.33C234.12 64.54 225.14 64.73 216.23 63.85C211.92 63.44 207.57 63.6 203.22 63.35C198.43 63.1 193.61 62.85 188.83 62.56C190.85 58.78 193.77 56.1 197.55 53.9C202.05 51.25 206.84 50.66 211.72 49.84C215.28 49.08 218.71 50.6 222.27 50.44C228.73 51.79 234.27 54.98 239.18 59.2C240.91 60.71 241.76 63.26 243.02 65.34L243.03 65.33Z" fill="#AAB855"/>
<path d="M278.69 266.25C278.6 266.41 278.44 266.47 278.25 266.44V266.41C278.28 266.25 278.31 266.16 278.34 266C278.47 266.09 278.56 266.19 278.69 266.25Z" fill="#FE9932"/>
<path d="M278.25 266.41V266.44C278.03 266.69 277.87 266.79 277.62 266.5C277.81 266.47 278.03 266.44 278.25 266.41Z" fill="#FE9932"/>
<path d="M420.66 208.16C423.43 205.07 423.05 203.25 419.1 202.09C409.35 199.22 399.57 196.44 389.75 193.82C384.12 192.32 378.4 191.19 372.53 189.86C374.32 183.28 376.17 177.12 377.67 170.88C379.37 163.76 380.78 156.56 382.25 149.38C382.93 146.04 381.37 143.98 378.25 142.92C373.55 141.33 368.94 139.34 364.13 138.2C321.85 128.23 278.96 122.8 235.55 121.45C185.64 119.9 136.13 123.81 87.1501 133.64C72.7601 136.53 58.5401 140.3 44.2301 143.58C41.2701 144.26 40.3101 145.81 41.0101 148.7C41.6501 151.33 42.0501 154.03 42.6301 156.67C45.0201 167.59 47.4301 178.49 49.9101 189.76C48.9401 190.05 48.3101 190.26 47.6701 190.42C33.1401 194.22 18.5801 197.92 4.09008 201.85C-0.819917 203.19 -1.13992 204.86 2.25008 208.63C11.1701 218.54 20.0801 228.48 29.0901 238.32C30.6801 240.05 30.9001 241.44 30.1101 243.69C27.0701 252.31 24.1601 261 21.5301 269.76C20.1701 274.29 19.3401 278.99 18.5901 283.67C18.0001 287.38 19.1901 288.41 22.9801 287.89C26.6701 287.39 30.3601 286.78 34.0201 286.09C56.1201 281.9 78.1601 277.43 99.5001 270.14C103.96 268.61 103.86 268.1 102.78 263.5C99.6301 250.11 96.7701 236.65 93.7101 222.82C129.44 216.16 165.11 212.49 201.12 212.09C243.87 211.61 286.17 215.6 327.93 224.03C328.07 224.62 328.21 224.85 328.17 225.04C325.35 237.95 322.62 250.89 319.64 263.76C318.67 267.97 318.66 268.64 322.61 269.98C347.63 278.48 373.45 283.56 399.43 287.9C403.24 288.54 404.21 287.5 403.92 283.73C403.85 282.83 403.79 281.9 403.54 281.05C399.91 268.71 396.34 256.34 392.5 244.07C391.73 241.61 391.78 240.07 393.59 238.1C402.71 228.21 411.67 218.17 420.66 208.16ZM26.3401 280.35C26.3901 280.13 26.5201 279.43 26.7101 278.74C29.8901 266.87 33.0101 254.97 36.3101 243.13C37.0801 240.35 36.2801 238.49 34.4301 236.47C26.4101 227.74 18.5101 218.9 10.5801 210.08C9.84008 209.26 9.16008 208.39 8.38008 207.45C23.0001 204.44 37.3901 201.47 52.0801 198.43C53.1201 202.51 54.4101 206.61 55.1901 210.79C56.9701 220.41 61.3401 228.58 67.9001 235.79C76.1001 244.82 84.0401 254.08 92.1001 263.24C92.8301 264.07 93.5201 264.92 93.9001 265.38C71.3201 270.38 48.8801 275.35 26.3501 280.34L26.3401 280.35ZM96.1801 253.62C87.6801 245.61 78.6501 237.12 68.9701 228.01C76.0301 226.5 82.2301 225.17 88.8901 223.74C91.4501 234.27 93.9801 244.61 96.1801 253.63V253.62ZM305.71 210.93C263.38 203.91 220.74 202.14 177.93 204.86C141.63 207.17 105.84 212.85 70.6201 222.02C69.4301 222.33 68.2301 222.62 67.5901 222.77C60.7801 197.99 54.0001 173.33 47.1401 148.37C156.55 122.55 265.91 123.34 374.47 149.63C368.95 174 363.32 198.82 357.75 223.41C341.3 215.54 323.31 213.84 305.71 210.92V210.93ZM326.03 254.81C328.41 245.01 330.8 235.21 333.22 225.26C339.53 226.52 345.46 227.7 352 229C343.37 237.85 334.96 246.47 326.56 255.08L326.03 254.82V254.81ZM386.12 242.96C389.37 255.52 392.5 268.11 395.57 280.23C373.74 275.39 351.18 270.39 328.52 265.37C329.29 264.5 330.41 263.29 331.49 262.04C340.68 251.45 349.9 240.89 359 230.24C360.2 228.83 361.12 227.04 361.69 225.27C364.55 216.35 367.24 207.38 370.02 198.35C384.85 201.42 399.3 204.42 414.15 207.5C411.54 210.43 408.99 213.35 406.39 216.24C400.19 223.13 394.03 230.06 387.72 236.85C385.98 238.72 385.48 240.51 386.12 242.96Z" fill="#19A79D"/>
<path d="M374.48 149.63C368.96 174 363.33 198.83 357.76 223.41C341.31 215.54 323.32 213.84 305.72 210.92C263.39 203.91 220.75 202.13 177.94 204.85C141.64 207.16 105.85 212.85 70.6301 222.01C69.4401 222.32 68.2401 222.6 67.5901 222.76C60.7801 197.98 54.0001 173.32 47.1401 148.37C156.55 122.55 265.91 123.34 374.48 149.63Z" fill="white"/>
<path d="M370.03 198.34C384.86 201.41 399.31 204.41 414.15 207.49C411.55 210.42 408.99 213.34 406.39 216.23C400.19 223.12 394.03 230.06 387.72 236.85C385.98 238.72 385.48 240.5 386.12 242.96C389.37 255.52 392.51 268.11 395.57 280.23C373.74 275.39 351.18 270.39 328.52 265.37C329.29 264.5 330.41 263.29 331.5 262.04C340.69 251.45 349.9 240.89 359.01 230.23C360.21 228.82 361.13 227.03 361.7 225.26C364.56 216.34 367.25 207.37 370.03 198.34Z" fill="white"/>
<path d="M93.8901 265.39C71.3101 270.39 48.8601 275.36 26.3401 280.35C26.3901 280.13 26.5201 279.43 26.7101 278.74C29.8901 266.87 33.0101 254.98 36.3101 243.13C37.0801 240.35 36.2801 238.49 34.4301 236.48C26.4001 227.75 18.5101 218.9 10.5801 210.09C9.84013 209.27 9.16013 208.4 8.38013 207.47C23.0001 204.45 37.4001 201.48 52.0701 198.45C53.1101 202.53 54.4101 206.62 55.1801 210.8C56.9601 220.42 61.3301 228.59 67.8901 235.81C76.0901 244.84 84.0401 254.09 92.0901 263.26C92.8101 264.08 93.5101 264.94 93.8901 265.4V265.39Z" fill="white"/>
<path d="M96.18 253.62C87.68 245.62 78.65 237.12 68.97 228.01C76.03 226.5 82.23 225.16 88.89 223.73C91.46 234.26 93.98 244.6 96.18 253.62Z" fill="white"/>
<path d="M326.03 254.8C328.42 245 330.8 235.2 333.22 225.25C339.53 226.51 345.46 227.69 352 228.99C343.37 237.84 334.96 246.45 326.56 255.06C326.38 254.97 326.21 254.88 326.03 254.8Z" fill="white"/>
<path d="M180.28 162.54C180.2 161.2 180.12 159.86 180.04 158.52C181.1 158.46 182.17 158.4 183.23 158.34C182.95 153.29 182.68 148.24 182.4 143.19C181.31 143.25 180.22 143.31 179.13 143.38C179.05 142.04 178.97 140.7 178.89 139.36C182.94 139.12 186.99 138.92 191.04 138.76C191.1 140.1 191.15 141.44 191.2 142.78C190.11 142.82 189.02 142.87 187.93 142.92C188.16 147.97 188.4 153.02 188.63 158.08C189.69 158.03 190.76 157.99 191.82 157.94C191.87 159.28 191.93 160.62 191.98 161.96C188.08 162.12 184.17 162.31 180.27 162.54H180.28Z" fill="#262223"/>
<path d="M195.69 138.59C199.83 138.45 203.97 138.36 208.11 138.3C210.24 138.27 211.9 138.81 213.08 139.88C214.27 140.96 214.86 142.4 214.87 144.2C214.87 145.09 214.75 145.84 214.5 146.46C214.25 147.08 213.91 147.59 213.5 147.99C213.08 148.39 212.59 148.69 212.03 148.88C211.47 149.07 210.86 149.18 210.21 149.21C210.21 149.28 210.21 149.34 210.21 149.41C210.81 149.41 211.44 149.5 212.1 149.69C212.76 149.89 213.37 150.2 213.92 150.63C214.47 151.06 214.94 151.62 215.31 152.3C215.68 152.99 215.87 153.83 215.87 154.83C215.87 155.74 215.71 156.6 215.4 157.41C215.08 158.22 214.64 158.93 214.08 159.53C213.52 160.13 212.85 160.61 212.07 160.96C211.3 161.31 210.45 161.49 209.53 161.5C205.18 161.55 200.82 161.65 196.47 161.79C196.21 154.05 195.95 146.32 195.69 138.58V138.59ZM201.49 147.94C203.31 147.9 205.12 147.86 206.94 147.83C207.66 147.82 208.22 147.62 208.63 147.24C209.03 146.86 209.23 146.33 209.22 145.67C209.22 145.34 209.22 145 209.21 144.67C209.21 144 208.99 143.49 208.57 143.11C208.15 142.74 207.58 142.56 206.85 142.57C205.02 142.6 203.19 142.63 201.36 142.68C201.4 144.43 201.45 146.18 201.49 147.94ZM201.72 157.39C203.79 157.34 205.87 157.3 207.94 157.27C208.65 157.26 209.21 157.07 209.62 156.7C210.03 156.33 210.23 155.81 210.23 155.15C210.23 154.77 210.23 154.4 210.22 154.02C210.22 153.35 210 152.84 209.58 152.48C209.16 152.12 208.59 151.94 207.87 151.95C205.78 151.98 203.69 152.02 201.6 152.07C201.64 153.84 201.69 155.62 201.73 157.39H201.72Z" fill="#262223"/>
<path d="M238.97 146.63C238.97 146.63 238.9 146.63 238.86 146.63C238.21 147.74 237.56 148.85 236.91 149.96C235.19 152.65 233.5 155.34 231.82 158.04C230.31 155.27 228.78 152.51 227.23 149.76C226.61 148.53 225.99 147.3 225.37 146.07C225.33 146.07 225.3 146.07 225.26 146.07C225.19 151.23 225.13 156.38 225.06 161.54C223.38 161.52 221.69 161.5 220.01 161.49C220.05 153.75 220.08 146.01 220.12 138.27C222.09 138.28 224.05 138.3 226.02 138.33C228.06 141.99 230.06 145.65 232.03 149.33C232.05 149.33 232.08 149.33 232.1 149.33C234.22 145.75 236.37 142.19 238.55 138.64C240.53 138.71 242.51 138.79 244.48 138.87C244.15 146.6 243.82 154.34 243.49 162.07C241.81 162 240.13 161.93 238.44 161.87C238.62 156.79 238.79 151.72 238.97 146.64V146.63Z" fill="#262223"/>
<path d="M88.73 196.39C85.76 197.04 82.8 197.72 79.84 198.42C80.57 201.51 81.3 204.59 82.03 207.68C80.37 208.07 78.71 208.47 77.04 208.88C75.19 201.36 73.34 193.85 71.49 186.33C73.22 185.91 74.94 185.49 76.67 185.08C77.38 188.07 78.09 191.06 78.8 194.05C81.78 193.35 84.76 192.66 87.75 192C87.09 189 86.42 186 85.76 183C87.49 182.62 89.23 182.24 90.97 181.88C92.57 189.45 94.18 197.03 95.78 204.6C94.11 204.95 92.44 205.31 90.77 205.68C90.09 202.58 89.4 199.48 88.72 196.39H88.73Z" fill="#262223"/>
<path d="M115.09 200.86C114.22 199.14 113.34 197.43 112.46 195.72C109.86 196.19 107.27 196.67 104.68 197.17C104.47 199.09 104.27 201 104.08 202.92C102.38 203.25 100.69 203.59 99 203.94C99.97 195.84 101.04 187.73 102.22 179.62C104.37 179.21 106.53 178.81 108.69 178.42C112.67 185.57 116.56 192.75 120.34 199.97C118.59 200.26 116.85 200.56 115.1 200.87L115.09 200.86ZM106.21 183.53C106.15 183.54 106.1 183.55 106.04 183.56C105.7 186.61 105.38 189.66 105.07 192.72C106.86 192.38 108.66 192.04 110.45 191.72C109.05 188.99 107.64 186.26 106.21 183.54V183.53Z" fill="#262223"/>
<path d="M131.98 198.54C130.41 198.77 128.95 198.74 127.61 198.44C126.27 198.14 125.08 197.58 124.03 196.74C122.98 195.91 122.1 194.8 121.37 193.43C120.64 192.06 120.11 190.39 119.79 188.45C119.47 186.52 119.44 184.77 119.69 183.19C119.94 181.61 120.45 180.23 121.2 179.07C121.95 177.91 122.95 176.96 124.18 176.23C125.41 175.5 126.85 175.02 128.48 174.78C130.72 174.45 132.63 174.63 134.2 175.3C135.77 175.97 137.12 177.18 138.23 178.94C136.83 179.88 135.43 180.83 134.04 181.79C133.59 180.87 132.98 180.16 132.22 179.68C131.46 179.19 130.43 179.04 129.12 179.23C127.59 179.45 126.43 180.12 125.65 181.21C124.87 182.3 124.63 183.76 124.91 185.58C125.1 186.81 125.29 188.04 125.48 189.26C125.76 191.08 126.43 192.39 127.48 193.21C128.53 194.03 129.8 194.32 131.3 194.1C132.55 193.92 133.5 193.44 134.16 192.66C134.81 191.88 135.26 191 135.49 190.01C136.99 190.61 138.49 191.21 139.98 191.82C139.34 193.69 138.38 195.2 137.1 196.35C135.82 197.5 134.11 198.23 131.96 198.54H131.98Z" fill="#262223"/>
<path d="M151.2 185.47C150.3 186.8 149.42 188.12 148.53 189.45C148.78 191.59 149.03 193.72 149.27 195.86C147.58 196.06 145.89 196.26 144.2 196.47C143.24 188.79 142.28 181.11 141.32 173.43C143.08 173.21 144.83 173 146.59 172.8C147.02 176.46 147.44 180.11 147.87 183.77C147.94 183.77 148.01 183.75 148.07 183.75C149.02 182.13 149.98 180.52 150.95 178.91C152.51 176.54 154.08 174.18 155.68 171.82C157.67 171.62 159.66 171.43 161.66 171.25C159.23 174.67 156.84 178.1 154.49 181.54C157.88 185.77 161.21 190.03 164.47 194.31C162.48 194.49 160.48 194.68 158.49 194.88C156.09 191.73 153.66 188.6 151.2 185.48V185.47Z" fill="#262223"/>
<path d="M175.05 174.68C175.48 180.91 175.91 187.14 176.34 193.37C174.64 193.49 172.95 193.61 171.25 193.74C170.77 187.51 170.28 181.29 169.79 175.07C167.61 175.24 165.44 175.42 163.27 175.61C163.14 174.12 163 172.63 162.87 171.14C169.01 170.6 175.16 170.14 181.31 169.79C181.4 171.28 181.49 172.78 181.57 174.27C179.39 174.4 177.21 174.53 175.04 174.68H175.05Z" fill="#262223"/>
<path d="M194.73 192.79C193.19 192.85 191.77 192.65 190.47 192.2C189.17 191.75 188.05 191.04 187.1 190.08C186.15 189.12 185.39 187.9 184.81 186.43C184.23 184.96 183.89 183.24 183.78 181.27C183.67 179.3 183.83 177.55 184.25 176.03C184.67 174.51 185.32 173.22 186.2 172.16C187.07 171.11 188.16 170.29 189.46 169.72C190.76 169.15 192.21 168.83 193.82 168.78C195.42 168.72 196.9 168.93 198.24 169.4C199.58 169.87 200.73 170.6 201.68 171.59C202.63 172.58 203.37 173.81 203.91 175.3C204.45 176.79 204.74 178.51 204.77 180.49C204.81 182.46 204.59 184.21 204.13 185.71C203.66 187.22 202.99 188.49 202.12 189.52C201.24 190.55 200.18 191.34 198.92 191.89C197.66 192.44 196.26 192.74 194.72 192.8L194.73 192.79ZM194.56 188.3C196.11 188.24 197.3 187.7 198.14 186.68C198.98 185.66 199.37 184.21 199.32 182.35C199.29 181.2 199.25 180.04 199.22 178.89C199.17 177.03 198.68 175.61 197.76 174.64C196.84 173.67 195.58 173.21 193.99 173.27C192.4 173.33 191.18 173.88 190.33 174.92C189.49 175.96 189.11 177.41 189.2 179.27C189.25 180.42 189.31 181.57 189.36 182.73C189.45 184.59 189.95 186 190.86 186.96C191.77 187.92 193 188.37 194.56 188.31V188.3Z" fill="#262223"/>
<path d="M208.97 168.81C212.91 168.76 216.85 168.75 220.8 168.78C222.82 168.79 224.4 169.36 225.5 170.46C226.61 171.56 227.14 173.02 227.11 174.81C227.09 175.7 226.96 176.45 226.71 177.07C226.46 177.69 226.13 178.19 225.72 178.58C225.31 178.97 224.84 179.26 224.3 179.44C223.76 179.62 223.18 179.72 222.57 179.74C222.57 179.81 222.57 179.87 222.57 179.94C223.14 179.94 223.74 180.05 224.36 180.26C224.99 180.47 225.56 180.79 226.07 181.23C226.59 181.67 227.02 182.24 227.36 182.93C227.7 183.63 227.86 184.47 227.84 185.47C227.82 186.38 227.65 187.24 227.34 188.04C227.02 188.85 226.59 189.54 226.04 190.13C225.49 190.72 224.85 191.18 224.1 191.52C223.36 191.85 222.55 192.02 221.68 192.01C217.54 191.97 213.4 191.98 209.26 192.03C209.16 184.29 209.06 176.55 208.96 168.81H208.97ZM214.31 178.28C216.04 178.28 217.77 178.28 219.5 178.28C220.19 178.28 220.72 178.1 221.12 177.73C221.51 177.36 221.71 176.84 221.72 176.17C221.72 175.84 221.72 175.5 221.72 175.17C221.72 174.5 221.53 173.98 221.14 173.6C220.75 173.22 220.21 173.03 219.51 173.02C217.77 173.02 216.02 173.02 214.28 173.02C214.28 174.77 214.3 176.52 214.3 178.28H214.31ZM214.35 187.73C216.32 187.73 218.29 187.73 220.27 187.73C220.95 187.73 221.48 187.55 221.88 187.19C222.28 186.83 222.48 186.31 222.49 185.65C222.49 185.27 222.49 184.9 222.5 184.52C222.5 183.85 222.31 183.34 221.92 182.97C221.53 182.6 220.99 182.41 220.31 182.41C218.32 182.4 216.33 182.4 214.34 182.41C214.34 184.18 214.35 185.96 214.36 187.73H214.35Z" fill="#262223"/>
<path d="M231.65 192.18C231.85 184.44 232.05 176.7 232.24 168.96C237.76 169.1 243.29 169.32 248.81 169.61C248.73 171.11 248.65 172.6 248.57 174.1C244.84 173.9 241.12 173.74 237.39 173.61C237.34 175.18 237.28 176.76 237.23 178.33C240.4 178.44 243.57 178.57 246.74 178.73C246.67 180.22 246.59 181.72 246.52 183.21C243.37 183.05 240.23 182.92 237.08 182.81C237.02 184.48 236.97 186.16 236.91 187.83C240.55 187.96 244.19 188.11 247.83 188.31C247.75 189.81 247.67 191.3 247.59 192.8C242.28 192.52 236.97 192.31 231.66 192.17L231.65 192.18Z" fill="#262223"/>
<path d="M257.1 193.39C255.4 193.27 253.7 193.16 252.01 193.06C252.48 185.33 252.94 177.61 253.41 169.88C257.26 170.11 261.1 170.38 264.94 170.69C266.06 170.78 267.05 171.04 267.93 171.47C268.8 171.9 269.53 172.47 270.11 173.18C270.69 173.89 271.11 174.71 271.37 175.65C271.63 176.59 271.71 177.61 271.61 178.71C271.47 180.28 270.98 181.61 270.16 182.72C269.34 183.83 268.18 184.58 266.68 184.99C267.98 188.15 269.25 191.31 270.5 194.48C268.61 194.31 266.73 194.14 264.84 193.98C263.71 191.04 262.56 188.1 261.39 185.16C260.16 185.07 258.92 184.98 257.68 184.89C257.48 187.72 257.29 190.55 257.09 193.39H257.1ZM263.46 181.05C264.24 181.11 264.86 180.97 265.34 180.62C265.82 180.27 266.09 179.72 266.15 178.97C266.19 178.48 266.23 178 266.27 177.51C266.33 176.76 266.15 176.17 265.74 175.75C265.32 175.33 264.72 175.08 263.94 175.02C262.1 174.87 260.25 174.74 258.41 174.61C258.27 176.62 258.13 178.64 257.99 180.65C259.82 180.78 261.64 180.91 263.47 181.06L263.46 181.05Z" fill="#262223"/>
<path d="M274.58 194.87C275.35 187.17 276.11 179.46 276.87 171.76C282.24 172.29 287.6 172.9 292.96 173.58C292.77 175.07 292.59 176.55 292.4 178.04C288.83 177.59 285.25 177.17 281.68 176.78C281.51 178.35 281.34 179.91 281.17 181.48C284.19 181.81 287.22 182.16 290.24 182.53C290.06 184.02 289.87 185.5 289.69 186.99C286.69 186.62 283.69 186.27 280.69 185.95C280.35 189.1 280.01 192.26 279.67 195.41C277.98 195.23 276.28 195.05 274.59 194.88L274.58 194.87Z" fill="#262223"/>
<path d="M294.13 197.15C295.16 189.48 296.18 181.8 297.2 174.13C302.69 174.86 308.18 175.67 313.65 176.56C313.41 178.04 313.17 179.52 312.94 180.99C309.24 180.39 305.54 179.83 301.84 179.3C301.62 180.86 301.4 182.42 301.17 183.98C304.32 184.43 307.47 184.9 310.62 185.4C310.39 186.88 310.15 188.36 309.92 189.83C306.8 189.33 303.67 188.86 300.54 188.42C300.3 190.08 300.07 191.74 299.83 193.39C303.45 193.91 307.06 194.46 310.67 195.04C310.43 196.52 310.19 198 309.95 199.47C304.68 198.62 299.41 197.84 294.12 197.13L294.13 197.15Z" fill="#262223"/>
<path d="M321.78 201.92C319.75 201.55 318.08 200.9 316.78 199.96C315.48 199.02 314.42 197.93 313.6 196.66C314.9 195.74 316.2 194.82 317.52 193.91C318.81 195.92 320.6 197.13 322.92 197.55C324.17 197.78 325.14 197.7 325.83 197.32C326.53 196.94 326.95 196.34 327.11 195.51C327.23 194.88 327.15 194.32 326.87 193.84C326.59 193.35 325.91 192.93 324.84 192.57C324.08 192.33 323.32 192.09 322.57 191.85C320.13 191.09 318.43 190.04 317.46 188.68C316.49 187.32 316.17 185.68 316.49 183.75C316.66 182.72 317.03 181.81 317.58 181.03C318.13 180.25 318.85 179.61 319.73 179.13C320.6 178.65 321.63 178.34 322.81 178.2C323.99 178.06 325.29 178.12 326.72 178.38C328.54 178.71 330.09 179.29 331.36 180.1C332.63 180.91 333.66 181.94 334.43 183.18C333.06 184.06 331.69 184.95 330.33 185.84C329.88 185.11 329.29 184.46 328.56 183.91C327.83 183.36 326.84 182.97 325.61 182.74C324.45 182.53 323.54 182.57 322.9 182.85C322.26 183.14 321.88 183.63 321.76 184.32C321.62 185.1 321.74 185.7 322.13 186.12C322.51 186.55 323.19 186.92 324.16 187.26C324.92 187.52 325.68 187.79 326.44 188.05C328.82 188.88 330.49 189.95 331.45 191.26C332.41 192.57 332.69 194.22 332.29 196.2C332.07 197.29 331.67 198.25 331.09 199.09C330.51 199.93 329.77 200.59 328.88 201.1C327.99 201.61 326.94 201.93 325.75 202.08C324.56 202.23 323.24 202.17 321.8 201.9L321.78 201.92Z" fill="#262223"/>
<path d="M347.96 187.72C346.6 193.82 345.25 199.91 343.89 206C342.22 205.63 340.54 205.26 338.87 204.9C340.17 198.79 341.48 192.69 342.78 186.58C340.63 186.12 338.48 185.67 336.33 185.24C336.63 183.77 336.92 182.3 337.22 180.84C343.3 182.07 349.37 183.39 355.42 184.81C355.08 186.27 354.74 187.73 354.4 189.18C352.26 188.68 350.11 188.19 347.97 187.71L347.96 187.72Z" fill="#262223"/>
<path d="M116.84 148.86C115.86 150.46 114.94 152.08 114.09 153.71C112.05 154.04 110.04 154.47 108.05 154.97C109.66 156.02 111.21 157.13 112.67 158.28C112.45 160.05 112.26 161.83 112.1 163.6C113.61 162.65 115.19 161.76 116.84 160.93C118.49 161.76 120.07 162.65 121.58 163.6C121.41 161.83 121.22 160.05 121.01 158.28C122.48 157.13 124.02 156.02 125.63 154.97C123.65 154.46 121.63 154.04 119.59 153.7C118.74 152.07 117.82 150.45 116.84 148.85V148.86Z" fill="#19A79D"/>
<path d="M153.84 144.86C152.86 146.46 151.94 148.08 151.09 149.71C149.05 150.04 147.04 150.47 145.05 150.97C146.66 152.02 148.21 153.13 149.67 154.28C149.45 156.05 149.26 157.83 149.1 159.6C150.61 158.65 152.19 157.76 153.84 156.93C155.49 157.76 157.07 158.65 158.58 159.6C158.41 157.82 158.22 156.05 158.01 154.28C159.48 153.13 161.02 152.02 162.63 150.97C160.65 150.46 158.63 150.04 156.59 149.7C155.74 148.07 154.82 146.45 153.84 144.85V144.86Z" fill="#19A79D"/>
<path d="M269.84 144.86C268.86 146.46 267.94 148.08 267.09 149.71C265.05 150.04 263.04 150.47 261.05 150.97C262.66 152.02 264.21 153.13 265.67 154.28C265.45 156.05 265.26 157.83 265.1 159.6C266.61 158.65 268.19 157.76 269.84 156.93C271.49 157.76 273.07 158.65 274.58 159.6C274.41 157.82 274.22 156.05 274.01 154.28C275.48 153.13 277.02 152.02 278.63 150.97C276.65 150.46 274.63 150.04 272.59 149.7C271.74 148.07 270.82 146.45 269.84 144.85V144.86Z" fill="#19A79D"/>
<path d="M306.84 148.86C305.86 150.46 304.94 152.08 304.09 153.71C302.05 154.04 300.04 154.47 298.05 154.97C299.66 156.02 301.21 157.13 302.67 158.28C302.45 160.05 302.26 161.83 302.1 163.6C303.61 162.65 305.19 161.76 306.84 160.93C308.49 161.76 310.07 162.65 311.58 163.6C311.41 161.82 311.22 160.05 311.01 158.28C312.48 157.13 314.02 156.02 315.63 154.97C313.65 154.46 311.63 154.04 309.59 153.7C308.74 152.07 307.82 150.45 306.84 148.85V148.86Z" fill="#19A79D"/>
</g>
<defs>
<clipPath id="clip0_1305_3173">
<rect width="422.45" height="343.66" fill="white"/>
</clipPath>
</defs>
</svg>
